ffmpeg started on 2026-01-19 at 12:00:00
Report written to "D:\Convert\FFMetrics\reports\psnr_report-6.txt"
Log level: 32
Command line:
ffmpeg -hide_banner -nostdin -r 24000/1001 -i "F:\\Convert\\files\\[DC] Make Heroine ga Oosugiru - 07_Telegram_HEVC(171).mkv" -r 24000/1001 -i "F:\\Convert\\files\\[DC] Make Heroine ga Oosugiru - 07_Telegram.mp4" -lavfi "[0:v]settb=AVTB,setpts=PTS-STARTPTS,format=pix_fmts=yuv420p10le,fps=24000/1001,scale=1920:1080:flags=lanczos:param0=3:out_range=limited:out_color_matrix=bt709:out_chroma_loc=left,setsar=1/1,setdar=(1920/1080)*(1/1),colorspace=format=yuv420p10:range=tv:primaries=bt709:trc=bt709:space=bt709:fast=0[main];[1:v]settb=AVTB,setpts=PTS-STARTPTS,format=pix_fmts=yuv420p,fps=24000/1001,scale=1920:1080:flags=lanczos:param0=3:out_range=limited:out_color_matrix=bt709:out_chroma_loc=left,setsar=1.000,setdar=1.778,colorspace=format=yuv420p:range=tv:primaries=bt709:trc=bt709:space=bt709:fast=0[ref];[main][ref]psnr=eof_action=endall:stats_file='D\\:/Convert/FFMetrics/logs/psnr_logfile-6.txt'" -f null -
Input #0, matroska,webm, from 'F:\Convert\files\[DC] Make Heroine ga Oosugiru - 07_Telegram_HEVC(171).mkv':
  Metadata:
    COMPATIBLE_BRANDS: isomiso2avc1mp41
    MAJOR_BRAND     : isom
    MINOR_VERSION   : 512
    ENCODER         : Lavf61.7.100
  Duration: 00:24:06.79, start: -0.021000, bitrate: 1052 kb/s
  Stream #0:0: Video: hevc (Main 10), yuv420p10le(tv, bt709, progressive), 1920x1080 [SAR 1:1 DAR 16:9], 23.98 fps, 23.98 tbr, 1k tbn (default)
      Metadata:
        HANDLER_NAME    : VideoHandler
        VENDOR_ID       : [0][0][0][0]
        ENCODER         : Lavc61.19.100 libx265
        BPS             : 855722
        DURATION        : 00:24:06.569708333
        NUMBER_OF_FRAMES: 34683
        NUMBER_OF_BYTES : 154732702
        _STATISTICS_WRITING_APP: mkvpropedit v94.0 ('Initiate') 64-bit
        _STATISTICS_WRITING_DATE_UTC: 2026-01-19 07:04:22
        _STATISTICS_TAGS: BPS DURATION NUMBER_OF_FRAMES NUMBER_OF_BYTES
  Stream #0:1: Audio: aac (LC), 48000 Hz, stereo, fltp (default)
      Metadata:
        HANDLER_NAME    : SoundHandler
        VENDOR_ID       : [0][0][0][0]
        ENCODER         : Lavc61.19.100 aac
        BPS             : 193194
        DURATION        : 00:24:06.784000000
        NUMBER_OF_FRAMES: 67819
        NUMBER_OF_BYTES : 34938755
        _STATISTICS_WRITING_APP: mkvpropedit v94.0 ('Initiate') 64-bit
        _STATISTICS_WRITING_DATE_UTC: 2026-01-19 07:04:22
        _STATISTICS_TAGS: BPS DURATION NUMBER_OF_FRAMES NUMBER_OF_BYTES
Input #1, mov,mp4,m4a,3gp,3g2,mj2, from 'F:\Convert\files\[DC] Make Heroine ga Oosugiru - 07_Telegram.mp4':
  Metadata:
    major_brand     : isom
    minor_version   : 512
    compatible_brands: isomiso2avc1mp41
    encoder         : Lavf60.16.100
  Duration: 00:24:06.74, start: 0.000000, bitrate: 3764 kb/s
  Stream #1:0[0x1](und): Video: h264 (High) (avc1 / 0x31637661), yuv420p(tv, bt709, progressive), 1920x1080 [SAR 1:1 DAR 16:9], 3616 kb/s, 23.98 fps, 23.98 tbr, 24k tbn (default)
      Metadata:
        handler_name    : VideoHandler
        vendor_id       : [0][0][0][0]
        encoder         : Lavc60.31.102 h264_qsv
  Stream #1:1[0x2](und): Audio: aac (HE-AACv2) (mp4a / 0x6134706D), 48000 Hz, stereo, fltp, 144 kb/s (default)
      Metadata:
        handler_name    : SoundHandler
        vendor_id       : [0][0][0][0]
Stream mapping:
  Stream #0:0 (hevc) -> settb:default
  Stream #1:0 (h264) -> settb:default
  psnr:default -> Stream #0:0 (wrapped_avframe)
  Stream #0:1 -> #0:1 (aac (native) -> pcm_s16le (native))
Output #0, null, to 'pipe:':
  Metadata:
    COMPATIBLE_BRANDS: isomiso2avc1mp41
    MAJOR_BRAND     : isom
    MINOR_VERSION   : 512
    encoder         : Lavf61.7.100
  Stream #0:0: Video: wrapped_avframe, yuv420p10le(tv, bt709, progressive), 1920x1080 [SAR 1:1 DAR 16:9], q=2-31, 200 kb/s, 23.98 fps, 23.98 tbn
      Metadata:
        encoder         : Lavc61.19.100 wrapped_avframe
  Stream #0:1: Audio: pcm_s16le, 48000 Hz, stereo, s16, 1536 kb/s (default)
      Metadata:
        HANDLER_NAME    : SoundHandler
        VENDOR_ID       : [0][0][0][0]
        _STATISTICS_TAGS: BPS DURATION NUMBER_OF_FRAMES NUMBER_OF_BYTES
        BPS             : 193194
        DURATION        : 00:24:06.784000000
        NUMBER_OF_FRAMES: 67819
        NUMBER_OF_BYTES : 34938755
        _STATISTICS_WRITING_APP: mkvpropedit v94.0 ('Initiate') 64-bit
        _STATISTICS_WRITING_DATE_UTC: 2026-01-19 07:04:22
        encoder         : Lavc61.19.100 pcm_s16le
frame=  134 fps=0.0 q=-0.0 size=N/A time=00:00:05.58 bitrate=N/A speed=10.8x    frame=  313 fps=304 q=-0.0 size=N/A time=00:00:13.05 bitrate=N/A speed=12.7x    frame=  502 fps=326 q=-0.0 size=N/A time=00:00:20.93 bitrate=N/A speed=13.6x    frame=  698 fps=338 q=-0.0 size=N/A time=00:00:29.11 bitrate=N/A speed=14.1x    frame=  884 fps=343 q=-0.0 size=N/A time=00:00:36.87 bitrate=N/A speed=14.3x    frame= 1017 fps=329 q=-0.0 size=N/A time=00:00:42.41 bitrate=N/A speed=13.7x    frame= 1186 fps=328 q=-0.0 size=N/A time=00:00:49.46 bitrate=N/A speed=13.7x    frame= 1337 fps=325 q=-0.0 size=N/A time=00:00:55.76 bitrate=N/A speed=13.5x    frame= 1506 fps=324 q=-0.0 size=N/A time=00:01:02.81 bitrate=N/A speed=13.5x    frame= 1648 fps=320 q=-0.0 size=N/A time=00:01:08.73 bitrate=N/A speed=13.3x    frame= 1815 fps=320 q=-0.0 size=N/A time=00:01:15.70 bitrate=N/A speed=13.4x    frame= 1976 fps=320 q=-0.0 size=N/A time=00:01:22.41 bitrate=N/A speed=13.3x    frame= 2100 fps=313 q=-0.0 size=N/A time=00:01:27.58 bitrate=N/A speed=13.1x    frame= 2249 fps=312 q=-0.0 size=N/A time=00:01:33.80 bitrate=N/A speed=  13x    frame= 2405 fps=311 q=-0.0 size=N/A time=00:01:40.30 bitrate=N/A speed=  13x    frame= 2538 fps=308 q=-0.0 size=N/A time=00:01:45.85 bitrate=N/A speed=12.8x    frame= 2694 fps=308 q=-0.0 size=N/A time=00:01:52.36 bitrate=N/A speed=12.8x    frame= 2866 fps=309 q=-0.0 size=N/A time=00:01:59.53 bitrate=N/A speed=12.9x    frame= 3048 fps=311 q=-0.0 size=N/A time=00:02:07.12 bitrate=N/A speed=  13x    frame= 3237 fps=314 q=-0.0 size=N/A time=00:02:15.00 bitrate=N/A speed=13.1x    frame= 3427 fps=317 q=-0.0 size=N/A time=00:02:22.93 bitrate=N/A speed=13.2x    frame= 3622 fps=320 q=-0.0 size=N/A time=00:02:31.06 bitrate=N/A speed=13.3x    frame= 3820 fps=322 q=-0.0 size=N/A time=00:02:39.32 bitrate=N/A speed=13.4x    frame= 4009 fps=324 q=-0.0 size=N/A time=00:02:47.20 bitrate=N/A speed=13.5x    frame= 4202 fps=326 q=-0.0 size=N/A time=00:02:55.25 bitrate=N/A speed=13.6x    frame= 4404 fps=328 q=-0.0 size=N/A time=00:03:03.68 bitrate=N/A speed=13.7x    frame= 4590 fps=330 q=-0.0 size=N/A time=00:03:11.44 bitrate=N/A speed=13.8x    frame= 4776 fps=331 q=-0.0 size=N/A time=00:03:19.19 bitrate=N/A speed=13.8x    frame= 4971 fps=333 q=-0.0 size=N/A time=00:03:27.33 bitrate=N/A speed=13.9x    frame= 5164 fps=334 q=-0.0 size=N/A time=00:03:35.38 bitrate=N/A speed=13.9x    frame= 5348 fps=335 q=-0.0 size=N/A time=00:03:43.05 bitrate=N/A speed=  14x    frame= 5541 fps=336 q=-0.0 size=N/A time=00:03:51.10 bitrate=N/A speed=  14x    frame= 5739 fps=337 q=-0.0 size=N/A time=00:03:59.36 bitrate=N/A speed=14.1x    frame= 5922 fps=338 q=-0.0 size=N/A time=00:04:06.99 bitrate=N/A speed=14.1x    frame= 6115 fps=339 q=-0.0 size=N/A time=00:04:15.04 bitrate=N/A speed=14.1x    frame= 6300 fps=340 q=-0.0 size=N/A time=00:04:22.76 bitrate=N/A speed=14.2x    frame= 6494 fps=340 q=-0.0 size=N/A time=00:04:30.85 bitrate=N/A speed=14.2x    frame= 6680 fps=341 q=-0.0 size=N/A time=00:04:38.61 bitrate=N/A speed=14.2x    frame= 6871 fps=342 q=-0.0 size=N/A time=00:04:46.57 bitrate=N/A speed=14.3x    frame= 7061 fps=342 q=-0.0 size=N/A time=00:04:54.50 bitrate=N/A speed=14.3x    frame= 7245 fps=343 q=-0.0 size=N/A time=00:05:02.17 bitrate=N/A speed=14.3x    frame= 7434 fps=343 q=-0.0 size=N/A time=00:05:10.05 bitrate=N/A speed=14.3x    frame= 7621 fps=344 q=-0.0 size=N/A time=00:05:17.85 bitrate=N/A speed=14.3x    frame= 7806 fps=344 q=-0.0 size=N/A time=00:05:25.57 bitrate=N/A speed=14.3x    frame= 7987 fps=344 q=-0.0 size=N/A time=00:05:33.12 bitrate=N/A speed=14.4x    frame= 8171 fps=345 q=-0.0 size=N/A time=00:05:40.79 bitrate=N/A speed=14.4x    frame= 8367 fps=345 q=-0.0 size=N/A time=00:05:48.97 bitrate=N/A speed=14.4x    frame= 8558 fps=346 q=-0.0 size=N/A time=00:05:56.93 bitrate=N/A speed=14.4x    frame= 8746 fps=346 q=-0.0 size=N/A time=00:06:04.78 bitrate=N/A speed=14.4x    frame= 8941 fps=347 q=-0.0 size=N/A time=00:06:12.91 bitrate=N/A speed=14.5x    frame= 9137 fps=347 q=-0.0 size=N/A time=00:06:21.08 bitrate=N/A speed=14.5x    frame= 9328 fps=348 q=-0.0 size=N/A time=00:06:29.05 bitrate=N/A speed=14.5x    frame= 9517 fps=348 q=-0.0 size=N/A time=00:06:36.93 bitrate=N/A speed=14.5x    frame= 9714 fps=349 q=-0.0 size=N/A time=00:06:45.15 bitrate=N/A speed=14.5x    frame= 9898 fps=349 q=-0.0 size=N/A time=00:06:52.82 bitrate=N/A speed=14.6x    frame=10083 fps=349 q=-0.0 size=N/A time=00:07:00.54 bitrate=N/A speed=14.6x    frame=10273 fps=350 q=-0.0 size=N/A time=00:07:08.46 bitrate=N/A speed=14.6x    frame=10455 fps=350 q=-0.0 size=N/A time=00:07:16.06 bitrate=N/A speed=14.6x    frame=10632 fps=350 q=-0.0 size=N/A time=00:07:23.44 bitrate=N/A speed=14.6x    frame=10830 fps=350 q=-0.0 size=N/A time=00:07:31.70 bitrate=N/A speed=14.6x    frame=11010 fps=350 q=-0.0 size=N/A time=00:07:39.20 bitrate=N/A speed=14.6x    frame=11196 fps=350 q=-0.0 size=N/A time=00:07:46.96 bitrate=N/A speed=14.6x    frame=11388 fps=351 q=-0.0 size=N/A time=00:07:54.97 bitrate=N/A speed=14.6x    frame=11577 fps=351 q=-0.0 size=N/A time=00:08:02.85 bitrate=N/A speed=14.6x    frame=11760 fps=351 q=-0.0 size=N/A time=00:08:10.49 bitrate=N/A speed=14.6x    frame=11948 fps=351 q=-0.0 size=N/A time=00:08:18.33 bitrate=N/A speed=14.6x    frame=12130 fps=351 q=-0.0 size=N/A time=00:08:25.92 bitrate=N/A speed=14.6x    frame=12325 fps=352 q=-0.0 size=N/A time=00:08:34.05 bitrate=N/A speed=14.7x    frame=12508 fps=352 q=-0.0 size=N/A time=00:08:41.68 bitrate=N/A speed=14.7x    frame=12693 fps=352 q=-0.0 size=N/A time=00:08:49.40 bitrate=N/A speed=14.7x    frame=12881 fps=352 q=-0.0 size=N/A time=00:08:57.24 bitrate=N/A speed=14.7x    frame=13072 fps=352 q=-0.0 size=N/A time=00:09:05.21 bitrate=N/A speed=14.7x    frame=13264 fps=352 q=-0.0 size=N/A time=00:09:13.21 bitrate=N/A speed=14.7x    frame=13449 fps=353 q=-0.0 size=N/A time=00:09:20.93 bitrate=N/A speed=14.7x    frame=13638 fps=353 q=-0.0 size=N/A time=00:09:28.81 bitrate=N/A speed=14.7x    frame=13824 fps=353 q=-0.0 size=N/A time=00:09:36.57 bitrate=N/A speed=14.7x    frame=14011 fps=353 q=-0.0 size=N/A time=00:09:44.37 bitrate=N/A speed=14.7x    frame=14197 fps=353 q=-0.0 size=N/A time=00:09:52.13 bitrate=N/A speed=14.7x    frame=14386 fps=353 q=-0.0 size=N/A time=00:10:00.01 bitrate=N/A speed=14.7x    frame=14567 fps=353 q=-0.0 size=N/A time=00:10:07.56 bitrate=N/A speed=14.7x    frame=14757 fps=353 q=-0.0 size=N/A time=00:10:15.48 bitrate=N/A speed=14.7x    frame=14946 fps=354 q=-0.0 size=N/A time=00:10:23.37 bitrate=N/A speed=14.7x    frame=15124 fps=353 q=-0.0 size=N/A time=00:10:30.79 bitrate=N/A speed=14.7x    frame=15303 fps=353 q=-0.0 size=N/A time=00:10:38.26 bitrate=N/A speed=14.7x    frame=15491 fps=353 q=-0.0 size=N/A time=00:10:46.10 bitrate=N/A speed=14.7x    frame=15687 fps=354 q=-0.0 size=N/A time=00:10:54.27 bitrate=N/A speed=14.8x    frame=15869 fps=354 q=-0.0 size=N/A time=00:11:01.86 bitrate=N/A speed=14.8x    frame=16058 fps=354 q=-0.0 size=N/A time=00:11:09.75 bitrate=N/A speed=14.8x    frame=16252 fps=354 q=-0.0 size=N/A time=00:11:17.84 bitrate=N/A speed=14.8x    frame=16438 fps=354 q=-0.0 size=N/A time=00:11:25.60 bitrate=N/A speed=14.8x    frame=16632 fps=355 q=-0.0 size=N/A time=00:11:33.69 bitrate=N/A speed=14.8x    frame=16827 fps=355 q=-0.0 size=N/A time=00:11:41.82 bitrate=N/A speed=14.8x    frame=17016 fps=355 q=-0.0 size=N/A time=00:11:49.70 bitrate=N/A speed=14.8x    frame=17211 fps=355 q=-0.0 size=N/A time=00:11:57.84 bitrate=N/A speed=14.8x    frame=17408 fps=355 q=-0.0 size=N/A time=00:12:06.05 bitrate=N/A speed=14.8x    frame=17603 fps=356 q=-0.0 size=N/A time=00:12:14.19 bitrate=N/A speed=14.8x    frame=17786 fps=356 q=-0.0 size=N/A time=00:12:21.82 bitrate=N/A speed=14.8x    frame=17984 fps=356 q=-0.0 size=N/A time=00:12:30.08 bitrate=N/A speed=14.8x    frame=18175 fps=356 q=-0.0 size=N/A time=00:12:38.04 bitrate=N/A speed=14.8x    frame=18361 fps=356 q=-0.0 size=N/A time=00:12:45.80 bitrate=N/A speed=14.8x    frame=18553 fps=356 q=-0.0 size=N/A time=00:12:53.81 bitrate=N/A speed=14.9x    frame=18744 fps=356 q=-0.0 size=N/A time=00:13:01.78 bitrate=N/A speed=14.9x    frame=18931 fps=356 q=-0.0 size=N/A time=00:13:09.58 bitrate=N/A speed=14.9x    frame=19129 fps=357 q=-0.0 size=N/A time=00:13:17.83 bitrate=N/A speed=14.9x    frame=19327 fps=357 q=-0.0 size=N/A time=00:13:26.09 bitrate=N/A speed=14.9x    frame=19522 fps=357 q=-0.0 size=N/A time=00:13:34.23 bitrate=N/A speed=14.9x    frame=19718 fps=357 q=-0.0 size=N/A time=00:13:42.40 bitrate=N/A speed=14.9x    frame=19907 fps=357 q=-0.0 size=N/A time=00:13:50.28 bitrate=N/A speed=14.9x    frame=20100 fps=358 q=-0.0 size=N/A time=00:13:58.33 bitrate=N/A speed=14.9x    frame=20290 fps=358 q=-0.0 size=N/A time=00:14:06.26 bitrate=N/A speed=14.9x    frame=20486 fps=358 q=-0.0 size=N/A time=00:14:14.43 bitrate=N/A speed=14.9x    frame=20668 fps=358 q=-0.0 size=N/A time=00:14:22.02 bitrate=N/A speed=14.9x    frame=20857 fps=358 q=-0.0 size=N/A time=00:14:29.91 bitrate=N/A speed=14.9x    frame=21051 fps=358 q=-0.0 size=N/A time=00:14:38.00 bitrate=N/A speed=14.9x    frame=21246 fps=358 q=-0.0 size=N/A time=00:14:46.13 bitrate=N/A speed=14.9x    frame=21434 fps=358 q=-0.0 size=N/A time=00:14:53.97 bitrate=N/A speed=14.9x    frame=21631 fps=359 q=-0.0 size=N/A time=00:15:02.19 bitrate=N/A speed=  15x    frame=21830 fps=359 q=-0.0 size=N/A time=00:15:10.49 bitrate=N/A speed=  15x    frame=22021 fps=359 q=-0.0 size=N/A time=00:15:18.45 bitrate=N/A speed=  15x    frame=22214 fps=359 q=-0.0 size=N/A time=00:15:26.50 bitrate=N/A speed=  15x    frame=22401 fps=359 q=-0.0 size=N/A time=00:15:34.30 bitrate=N/A speed=  15x    frame=22593 fps=359 q=-0.0 size=N/A time=00:15:42.31 bitrate=N/A speed=  15x    frame=22777 fps=359 q=-0.0 size=N/A time=00:15:49.99 bitrate=N/A speed=  15x    frame=22964 fps=359 q=-0.0 size=N/A time=00:15:57.79 bitrate=N/A speed=  15x    frame=23155 fps=359 q=-0.0 size=N/A time=00:16:05.75 bitrate=N/A speed=  15x    frame=23347 fps=359 q=-0.0 size=N/A time=00:16:13.76 bitrate=N/A speed=  15x    frame=23534 fps=359 q=-0.0 size=N/A time=00:16:21.56 bitrate=N/A speed=  15x    frame=23738 fps=360 q=-0.0 size=N/A time=00:16:30.07 bitrate=N/A speed=  15x    frame=23929 fps=360 q=-0.0 size=N/A time=00:16:38.03 bitrate=N/A speed=  15x    frame=24123 fps=360 q=-0.0 size=N/A time=00:16:46.13 bitrate=N/A speed=  15x    frame=24310 fps=360 q=-0.0 size=N/A time=00:16:53.92 bitrate=N/A speed=  15x    frame=24500 fps=360 q=-0.0 size=N/A time=00:17:01.85 bitrate=N/A speed=  15x    frame=24692 fps=360 q=-0.0 size=N/A time=00:17:09.86 bitrate=N/A speed=  15x    frame=24879 fps=360 q=-0.0 size=N/A time=00:17:17.66 bitrate=N/A speed=  15x    frame=25076 fps=360 q=-0.0 size=N/A time=00:17:25.87 bitrate=N/A speed=  15x    frame=25274 fps=360 q=-0.0 size=N/A time=00:17:34.13 bitrate=N/A speed=  15x    frame=25465 fps=360 q=-0.0 size=N/A time=00:17:42.10 bitrate=N/A speed=  15x    frame=25647 fps=360 q=-0.0 size=N/A time=00:17:49.69 bitrate=N/A speed=  15x    frame=25842 fps=360 q=-0.0 size=N/A time=00:17:57.82 bitrate=N/A speed=  15x    frame=26036 fps=361 q=-0.0 size=N/A time=00:18:05.91 bitrate=N/A speed=  15x    frame=26226 fps=361 q=-0.0 size=N/A time=00:18:13.84 bitrate=N/A speed=  15x    frame=26416 fps=361 q=-0.0 size=N/A time=00:18:21.76 bitrate=N/A speed=  15x    frame=26614 fps=361 q=-0.0 size=N/A time=00:18:30.02 bitrate=N/A speed=  15x    frame=26810 fps=361 q=-0.0 size=N/A time=00:18:38.20 bitrate=N/A speed=15.1x    frame=26978 fps=361 q=-0.0 size=N/A time=00:18:45.20 bitrate=N/A speed=  15x    frame=27155 fps=361 q=-0.0 size=N/A time=00:18:52.58 bitrate=N/A speed=  15x    frame=27341 fps=361 q=-0.0 size=N/A time=00:19:00.34 bitrate=N/A speed=  15x    frame=27529 fps=361 q=-0.0 size=N/A time=00:19:08.18 bitrate=N/A speed=  15x    frame=27706 fps=360 q=-0.0 size=N/A time=00:19:15.57 bitrate=N/A speed=  15x    frame=27884 fps=360 q=-0.0 size=N/A time=00:19:22.99 bitrate=N/A speed=  15x    frame=28073 fps=360 q=-0.0 size=N/A time=00:19:30.87 bitrate=N/A speed=  15x    frame=28262 fps=360 q=-0.0 size=N/A time=00:19:38.76 bitrate=N/A speed=  15x    frame=28445 fps=360 q=-0.0 size=N/A time=00:19:46.39 bitrate=N/A speed=  15x    frame=28624 fps=360 q=-0.0 size=N/A time=00:19:53.85 bitrate=N/A speed=  15x    frame=28797 fps=360 q=-0.0 size=N/A time=00:20:01.07 bitrate=N/A speed=  15x    frame=28969 fps=360 q=-0.0 size=N/A time=00:20:08.24 bitrate=N/A speed=  15x    frame=29154 fps=360 q=-0.0 size=N/A time=00:20:15.96 bitrate=N/A speed=  15x    frame=29329 fps=360 q=-0.0 size=N/A time=00:20:23.26 bitrate=N/A speed=  15x    frame=29505 fps=360 q=-0.0 size=N/A time=00:20:30.60 bitrate=N/A speed=  15x    frame=29683 fps=360 q=-0.0 size=N/A time=00:20:38.02 bitrate=N/A speed=  15x    frame=29867 fps=360 q=-0.0 size=N/A time=00:20:45.70 bitrate=N/A speed=  15x    frame=30026 fps=359 q=-0.0 size=N/A time=00:20:52.33 bitrate=N/A speed=  15x    frame=30210 fps=359 q=-0.0 size=N/A time=00:21:00.00 bitrate=N/A speed=  15x    frame=30412 fps=359 q=-0.0 size=N/A time=00:21:08.43 bitrate=N/A speed=  15x    frame=30600 fps=360 q=-0.0 size=N/A time=00:21:16.27 bitrate=N/A speed=  15x    frame=30781 fps=360 q=-0.0 size=N/A time=00:21:23.82 bitrate=N/A speed=  15x    frame=30972 fps=360 q=-0.0 size=N/A time=00:21:31.79 bitrate=N/A speed=  15x    frame=31164 fps=360 q=-0.0 size=N/A time=00:21:39.79 bitrate=N/A speed=  15x    frame=31352 fps=360 q=-0.0 size=N/A time=00:21:47.63 bitrate=N/A speed=  15x    frame=31533 fps=360 q=-0.0 size=N/A time=00:21:55.18 bitrate=N/A speed=  15x    frame=31725 fps=360 q=-0.0 size=N/A time=00:22:03.19 bitrate=N/A speed=  15x    frame=31908 fps=360 q=-0.0 size=N/A time=00:22:10.82 bitrate=N/A speed=  15x    frame=32085 fps=360 q=-0.0 size=N/A time=00:22:18.21 bitrate=N/A speed=  15x    frame=32274 fps=360 q=-0.0 size=N/A time=00:22:26.09 bitrate=N/A speed=  15x    frame=32463 fps=360 q=-0.0 size=N/A time=00:22:33.97 bitrate=N/A speed=  15x    frame=32643 fps=360 q=-0.0 size=N/A time=00:22:41.48 bitrate=N/A speed=  15x    frame=32797 fps=359 q=-0.0 size=N/A time=00:22:47.90 bitrate=N/A speed=  15x    frame=32967 fps=359 q=-0.0 size=N/A time=00:22:54.99 bitrate=N/A speed=  15x    frame=33148 fps=359 q=-0.0 size=N/A time=00:23:02.54 bitrate=N/A speed=  15x    frame=33320 fps=359 q=-0.0 size=N/A time=00:23:09.72 bitrate=N/A speed=  15x    frame=33488 fps=359 q=-0.0 size=N/A time=00:23:16.72 bitrate=N/A speed=  15x    frame=33638 fps=358 q=-0.0 size=N/A time=00:23:22.98 bitrate=N/A speed=14.9x    frame=33773 fps=358 q=-0.0 size=N/A time=00:23:28.61 bitrate=N/A speed=14.9x    frame=33906 fps=357 q=-0.0 size=N/A time=00:23:34.16 bitrate=N/A speed=14.9x    frame=34064 fps=357 q=-0.0 size=N/A time=00:23:40.75 bitrate=N/A speed=14.9x    frame=34222 fps=357 q=-0.0 size=N/A time=00:23:47.34 bitrate=N/A speed=14.9x    frame=34358 fps=356 q=-0.0 size=N/A time=00:23:53.01 bitrate=N/A speed=14.9x    frame=34492 fps=356 q=-0.0 size=N/A time=00:23:58.60 bitrate=N/A speed=14.8x    frame=34667 fps=356 q=-0.0 size=N/A time=00:24:05.90 bitrate=N/A speed=14.8x    [Parsed_psnr_16 @ 000001e547112980] PSNR y:48.600601 u:50.079247 v:50.255326 average:49.062518 min:36.511509 max:inf
[out#0/null @ 000001e539bd8a00] video:14903KiB audio:271276KiB subtitle:0KiB other streams:0KiB global headers:0KiB muxing overhead: unknown
frame=34683 fps=356 q=-0.0 Lsize=N/A time=00:24:06.57 bitrate=N/A speed=14.8x    
